<svg width="32" height="32" viewBox="0 0 32 32" fill="none" xmlns="http://www.w3.org/2000/svg">
<g id="Phosphor icons / BellRinging">
<path id="Vector (Stroke)" fill-rule="evenodd" clip-rule="evenodd" d="M16.0004 6.0249C14.9531 6.0249 13.9161 6.23118 12.9485 6.63196C11.9809 7.03274 11.1018 7.62018 10.3612 8.36073C9.62066 9.10127 9.03323 9.98043 8.63245 10.948C8.23166 11.9156 8.02538 12.9526 8.02538 13.9999C8.02538 18.6156 7.0576 21.3953 6.12891 22.9999H25.8719C24.9432 21.3953 23.9754 18.6156 23.9754 13.9999C23.9754 12.9526 23.7691 11.9156 23.3683 10.948C22.9675 9.98043 22.3801 9.10127 21.6396 8.36073C20.899 7.62018 20.0199 7.03274 19.0523 6.63196C18.0847 6.23118 17.0477 6.0249 16.0004 6.0249ZM12.1831 4.7842C13.3933 4.28291 14.6904 4.0249 16.0004 4.0249C17.3103 4.0249 18.6074 4.28291 19.8177 4.7842C21.0279 5.28549 22.1275 6.02025 23.0538 6.94651C23.98 7.87278 24.7148 8.97241 25.2161 10.1826C25.7174 11.3929 25.9754 12.69 25.9754 13.9999C25.9754 18.3333 26.8822 20.7533 27.6033 21.9989L27.6039 21.9999C27.7791 22.3034 27.8715 22.6477 27.8719 22.9981C27.8722 23.3486 27.7804 23.693 27.6057 23.9969C27.431 24.3007 27.1795 24.5533 26.8764 24.7293C26.5734 24.9054 26.2294 24.9987 25.8789 24.9999L25.8754 24.9999H6.12538L6.12186 24.9999C5.77139 24.9987 5.42739 24.9054 5.12433 24.7293C4.82127 24.5533 4.5698 24.3007 4.39509 23.9969C4.22039 23.693 4.1286 23.3486 4.12891 22.9981C4.12922 22.6477 4.22162 22.3034 4.39686 21.9999L4.39746 21.9989C5.11858 20.7533 6.02538 18.3333 6.02538 13.9999C6.02538 12.69 6.2834 11.3929 6.78469 10.1826C7.28598 8.97241 8.02073 7.87278 8.94699 6.94651C9.87326 6.02025 10.9729 5.28549 12.1831 4.7842Z" fill="#464645"/>
<path id="Vector (Stroke)_2" fill-rule="evenodd" clip-rule="evenodd" d="M12 23C12.5523 23 13 23.4477 13 24V25C13 25.7956 13.3161 26.5587 13.8787 27.1213C14.4413 27.6839 15.2044 28 16 28C16.7956 28 17.5587 27.6839 18.1213 27.1213C18.6839 26.5587 19 25.7956 19 25V24C19 23.4477 19.4477 23 20 23C20.5523 23 21 23.4477 21 24V25C21 26.3261 20.4732 27.5979 19.5355 28.5355C18.5979 29.4732 17.3261 30 16 30C14.6739 30 13.4021 29.4732 12.4645 28.5355C11.5268 27.5979 11 26.3261 11 25V24C11 23.4477 11.4477 23 12 23Z" fill="#464645"/>
</g>
</svg>
