<svg width="current" height="current" viewBox="0 0 22 4" fill="none" xmlns="http://www.w3.org/2000/svg">
<path d="M4 2C4 3.10457 3.10457 4 2 4C0.89543 4 0 3.10457 0 2C0 0.89543 0.89543 0 2 0C3.10457 0 4 0.89543 4 2Z" fill="current"/>
<path d="M13 2C13 3.10457 12.1046 4 11 4C9.89543 4 9 3.10457 9 2C9 0.89543 9.89543 0 11 0C12.1046 0 13 0.89543 13 2Z" fill="current"/>
<path d="M22 2C22 3.10457 21.1046 4 20 4C18.8954 4 18 3.10457 18 2C18 0.89543 18.8954 0 20 0C21.1046 0 22 0.89543 22 2Z" fill="current"/>
</svg>
