<svg width="current" height="current" viewBox="0 0 330 325" fill="none" xmlns="http://www.w3.org/2000/svg">
<path fill-rule="evenodd" clip-rule="evenodd" d="M136.971 46.3264C136.971 37.7981 143.885 30.8845 152.413 30.8845C160.941 30.8845 167.855 37.7981 167.855 46.3264H136.971ZM106.086 46.3264C106.086 20.741 126.828 0 152.413 0C177.999 0 198.74 20.741 198.74 46.3264H284.489C296.409 46.3264 305.683 56.6877 304.367 68.535L277.927 306.496C276.801 316.624 268.24 324.287 258.049 324.287H46.7745C36.5835 324.287 28.0222 316.624 26.8968 306.496L0.456728 68.5351C-0.859641 56.6877 8.41418 46.3264 20.3344 46.3264H106.086Z" fill="#E9E9EE"/>
<path fill-rule="evenodd" clip-rule="evenodd" d="M325.101 60.5721C332.968 50.4838 331.167 35.9286 321.079 28.0621C310.99 20.1955 296.435 21.9966 288.569 32.0849L172.753 180.611L111.656 119.514C102.61 110.468 87.9435 110.468 78.8977 119.514C69.8518 128.559 69.8518 143.226 78.8977 152.272L154.195 227.569C155.655 230.162 157.642 232.515 160.136 234.46C170.224 242.326 184.779 240.525 192.646 230.437L325.101 60.5721Z" fill="white"/>
</svg>
