<svg width="50" height="50" viewBox="0 0 50 50" fill="none" xmlns="http://www.w3.org/2000/svg">
<path d="M50 25C50 38.8071 38.8071 50 25 50C11.1929 50 0 38.8071 0 25C0 11.1929 11.1929 0 25 0C38.8071 0 50 11.1929 50 25Z" fill="white"/>
<path d="M14 24C14 21.2386 16.2386 19 19 19H31C33.7614 19 36 21.2386 36 24V29C36 31.7614 33.7614 34 31 34H19C16.2386 34 14 31.7614 14 29V24Z" fill="#626273"/>
<path d="M19 19C19 17.3431 20.3431 16 22 16H28C29.6569 16 31 17.3431 31 19H19Z" fill="#626273"/>
<path d="M29 27C29 29.2091 27.2091 31 25 31C22.7909 31 21 29.2091 21 27C21 24.7909 22.7909 23 25 23C27.2091 23 29 24.7909 29 27Z" fill="#626273"/>
<path d="M31 23C31 23.5523 30.5523 24 30 24C29.4477 24 29 23.5523 29 23C29 22.4477 29.4477 22 30 22C30.5523 22 31 22.4477 31 23Z" fill="white"/>
</svg>
