<svg width="14" height="14" viewBox="0 0 14 14" fill="none" xmlns="http://www.w3.org/2000/svg">
<g id="Group 239656">
<g id="Union">
<mask id="path-1-inside-1_264_2154" fill="white">
<path fill-rule="evenodd" clip-rule="evenodd" d="M7 14C10.866 14 14 10.866 14 7C14 3.13401 10.866 0 7 0C3.13401 0 0 3.13401 0 7C0 7.9582 0.192527 8.87144 0.541009 9.70313C0.619794 9.89116 0.650504 10.0969 0.616989 10.298L0.230151 12.619C0.117349 13.2958 0.7041 13.8826 1.38091 13.7698L3.70207 13.383C3.90316 13.3495 4.10885 13.3802 4.29687 13.459C5.12856 13.8075 6.0418 14 7 14Z"/>
</mask>
<path fill-rule="evenodd" clip-rule="evenodd" d="M7 14C10.866 14 14 10.866 14 7C14 3.13401 10.866 0 7 0C3.13401 0 0 3.13401 0 7C0 7.9582 0.192527 8.87144 0.541009 9.70313C0.619794 9.89116 0.650504 10.0969 0.616989 10.298L0.230151 12.619C0.117349 13.2958 0.7041 13.8826 1.38091 13.7698L3.70207 13.383C3.90316 13.3495 4.10885 13.3802 4.29687 13.459C5.12856 13.8075 6.0418 14 7 14Z" fill="#C6C6CD"/>
<path d="M3.70207 13.383L3.50483 12.1993L3.70207 13.383ZM4.29687 13.459L4.76061 12.3522L4.29687 13.459ZM1.38091 13.7698L1.18367 12.5861L1.38091 13.7698ZM0.541009 9.70313L1.64778 9.23939L0.541009 9.70313ZM12.8 7C12.8 10.2033 10.2033 12.8 7 12.8V15.2C11.5287 15.2 15.2 11.5287 15.2 7H12.8ZM7 1.2C10.2033 1.2 12.8 3.79675 12.8 7H15.2C15.2 2.47127 11.5287 -1.2 7 -1.2V1.2ZM1.2 7C1.2 3.79675 3.79675 1.2 7 1.2V-1.2C2.47127 -1.2 -1.2 2.47127 -1.2 7H1.2ZM1.64778 9.23939C1.35974 8.55194 1.2 7.79615 1.2 7H-1.2C-1.2 8.12025 -0.974684 9.19093 -0.565764 10.1669L1.64778 9.23939ZM1.41382 12.8163L1.80066 10.4952L-0.566684 10.1007L-0.953522 12.4217L1.41382 12.8163ZM3.50483 12.1993L1.18367 12.5861L1.57815 14.9535L3.89931 14.5667L3.50483 12.1993ZM7 12.8C6.20385 12.8 5.44806 12.6403 4.76061 12.3522L3.83313 14.5658C4.80907 14.9747 5.87975 15.2 7 15.2V12.8ZM3.89931 14.5667C3.85062 14.5748 3.82743 14.5634 3.83313 14.5658L4.76061 12.3522C4.39027 12.197 3.95569 12.1242 3.50483 12.1993L3.89931 14.5667ZM-0.953522 12.4217C-1.20168 13.9107 0.0891654 15.2016 1.57815 14.9535L1.18367 12.5861C1.31903 12.5636 1.43638 12.6809 1.41382 12.8163L-0.953522 12.4217ZM-0.565764 10.1669C-0.563375 10.1726 -0.574799 10.1494 -0.566684 10.1007L1.80066 10.4952C1.87581 10.0444 1.80296 9.60975 1.64778 9.23939L-0.565764 10.1669Z" fill="#C6C6CD" mask="url(#path-1-inside-1_264_2154)"/>
</g>
</g>
</svg>
