<svg width="current" height="current" viewBox="0 0 18 18" fill="current" xmlns="http://www.w3.org/2000/svg">
<path fill-rule="evenodd" clip-rule="evenodd" d="M4.267 2.57951C4.47798 2.36853 4.76413 2.25 5.0625 2.25H12.9375C13.2359 2.25 13.522 2.36853 13.733 2.57951C13.944 2.79048 14.0625 3.07663 14.0625 3.375V15.75C14.0625 15.9545 13.9515 16.1429 13.7727 16.242C13.5938 16.3411 13.3753 16.3354 13.2019 16.227L9 13.6008L4.79812 16.227C4.62472 16.3354 4.40617 16.3411 4.22732 16.242C4.04847 16.1429 3.9375 15.9545 3.9375 15.75V3.375C3.9375 3.07663 4.05603 2.79048 4.267 2.57951ZM12.9375 3.375H5.0625L5.0625 14.7351L8.70188 12.4605C8.88428 12.3465 9.11572 12.3465 9.29812 12.4605L12.9375 14.7351V3.375Z" fill="current"/>
<path d="M13.5 2.99805H4.5V15.373L9 12.748L13.5 15.373V2.99805Z" fill="current"/>
</svg>
