<svg width="17" height="16" viewBox="0 0 17 16" fill="none" xmlns="http://www.w3.org/2000/svg">
<path fill-rule="evenodd" clip-rule="evenodd" d="M7.39062 2.5C4.76727 2.5 2.64062 4.62665 2.64062 7.25C2.64062 9.87335 4.76727 12 7.39062 12C10.014 12 12.1406 9.87335 12.1406 7.25C12.1406 4.62665 10.014 2.5 7.39062 2.5ZM1.64062 7.25C1.64062 4.07436 4.21499 1.5 7.39062 1.5C10.5663 1.5 13.1406 4.07436 13.1406 7.25C13.1406 10.4256 10.5663 13 7.39062 13C4.21499 13 1.64062 10.4256 1.64062 7.25Z" fill="#9090A0"/>
<path fill-rule="evenodd" clip-rule="evenodd" d="M10.75 10.6093C10.9452 10.4141 11.2618 10.4141 11.4571 10.6093L14.4946 13.6468C14.6898 13.8421 14.6898 14.1587 14.4946 14.3539C14.2993 14.5492 13.9827 14.5492 13.7875 14.3539L10.75 11.3164C10.5547 11.1212 10.5547 10.8046 10.75 10.6093Z" fill="#9090A0"/>
</svg>
