<svg width="516" height="516" viewBox="0 0 516 516" fill="none" xmlns="http://www.w3.org/2000/svg">
<rect width="516" height="516" fill="#CFCFCF"/>
<rect width="1440" height="810" transform="translate(-188 -176)" fill="#FCFCFC"/>
<g filter="url(#filter0_d_14_2)">
<rect x="4" width="508" height="508" rx="40" fill="#E9E9EE"/>
</g>
<g filter="url(#filter1_d_14_2)">
<path d="M208.766 286.766V287.984H207.328V294.508C208.023 294.453 208.703 294.391 209.359 294.312L209.438 295.391C206.508 295.883 203.203 295.93 200.75 295.938L200.578 294.703C201.133 294.703 201.734 294.695 202.359 294.688V287.984H200.922V286.766H208.766ZM203.797 294.664C204.484 294.648 205.188 294.625 205.891 294.594V287.984H203.797V294.664ZM210.172 299.328V285.328H211.656V290.844H213.906V292.062H211.656V299.328H210.172ZM218.547 285.797C220.656 285.812 222.211 287.102 222.219 288.938C222.211 290.781 220.656 292.062 218.547 292.062C216.414 292.062 214.867 290.781 214.859 288.938C214.867 287.102 216.414 285.812 218.547 285.797ZM216.312 288.938C216.305 290.094 217.258 290.859 218.547 290.859C219.828 290.859 220.781 290.094 220.781 288.938C220.781 287.797 219.828 287.031 218.547 287.047C217.258 287.031 216.305 287.797 216.312 288.938ZM216.984 294.281V293.094H226.188V296.625H218.469V297.969H226.656V299.156H217.031V295.516H224.719V294.281H216.984ZM224.703 292.453V285.328H226.188V292.453H224.703ZM234.781 285.562C237.938 285.555 239.773 286.406 239.781 287.969C239.773 289.539 237.938 290.391 234.781 290.391C231.625 290.391 229.773 289.539 229.781 287.969C229.773 286.406 231.625 285.555 234.781 285.562ZM228.406 292.438V291.25H241.172V292.438H228.406ZM229.938 294.625V293.516H239.562V296.797H231.406V298.047H239.953V299.188H229.953V295.719H238.094V294.625H229.938ZM231.328 287.969C231.32 288.836 232.555 289.281 234.781 289.281C237.023 289.281 238.258 288.836 238.25 287.969C238.258 287.141 237.023 286.656 234.781 286.656C232.555 286.656 231.32 287.141 231.328 287.969ZM251.078 287.891C251.086 289.789 252.344 291.617 254.453 292.359L253.641 293.516C252.117 292.93 250.969 291.773 250.367 290.328C249.766 291.938 248.57 293.211 246.922 293.844L246.125 292.672C248.305 291.898 249.602 289.953 249.609 287.844V286.188H251.078V287.891ZM248.672 299.031V294.609H250.172V297.828H258.125V299.031H248.672ZM253.375 289.75V288.531H256.328V285.344H257.812V295.781H256.328V289.75H253.375ZM266.016 286.328V287.531H261.969V289.094H265.859V290.234H261.969V291.938C263.844 291.922 265.07 291.852 266.516 291.578L266.656 292.797C265.016 293.102 263.68 293.164 261.453 293.156H260.547V286.328H266.016ZM262.391 295.719V294.516H271.906V299.328H270.438V295.719H262.391ZM267.391 293.734V285.594H268.781V288.906H270.5V285.344H271.906V293.844H270.5V290.109H268.781V293.734H267.391ZM284.703 285.328V291H286.953V292.234H284.703V299.328H283.234V285.328H284.703ZM273.719 288.734V287.516H277.172V285.516H278.656V287.516H282.016V288.734H273.719ZM274.438 293.016C274.438 291.109 275.906 289.766 277.922 289.766C279.93 289.766 281.398 291.109 281.406 293.016C281.398 294.938 279.93 296.273 277.922 296.281C275.906 296.273 274.438 294.938 274.438 293.016ZM275.859 293.016C275.852 294.234 276.727 295.047 277.922 295.031C279.109 295.047 279.977 294.234 279.984 293.016C279.977 291.82 279.109 290.992 277.922 290.984C276.727 290.992 275.852 291.82 275.859 293.016ZM299.281 285.328V299.328H297.812V292.094H294.672V290.875H297.812V285.328H299.281ZM287.594 295.562C291.305 293.75 292.953 291.227 293.211 288.016H288.219V286.828H294.719C294.703 290.883 293.125 294.383 288.375 296.734L287.594 295.562ZM314.531 290.828V292.047H312.359V299.312H310.875V285.328H312.359V290.828H314.531ZM301.984 295.797V286.688H303.453V294.562C305.406 294.555 307.445 294.391 309.672 293.938L309.844 295.188C307.445 295.664 305.242 295.805 303.141 295.797H301.984ZM186.656 312.375C187.938 312.383 188.984 313.109 189.602 314.375H193.062V311.328H194.531V325.359H193.062V319.984H189.703C189.102 321.391 188.008 322.211 186.656 322.203C184.57 322.211 183.094 320.305 183.109 317.281C183.094 314.289 184.57 312.383 186.656 312.375ZM184.516 317.281C184.523 319.508 185.391 320.875 186.656 320.875C187.922 320.875 188.789 319.508 188.797 317.281C188.789 315.086 187.922 313.711 186.656 313.703C185.391 313.711 184.523 315.086 184.516 317.281ZM190.023 315.594C190.133 316.109 190.203 316.672 190.203 317.281C190.203 317.812 190.156 318.305 190.062 318.766H193.062V315.594H190.023ZM208.328 311.328V325.328H206.828V311.328H208.328ZM196.828 321.578C200.547 319.805 202.367 317.281 202.656 314.016H197.5V312.828H204.156C204.156 316.93 202.414 320.477 197.609 322.781L196.828 321.578ZM223.328 322.406V323.656H210.516V322.406H216.156V319.953H212.078V315.5H220.297V313.531H212.047V312.312H221.766V316.688H213.547V318.734H222.094V319.953H217.625V322.406H223.328ZM241.047 316.406V317.609H228.25V316.406H232.008C232.414 314.93 232.5 313.844 232.523 313.047H229.359V311.828H233.984V312.453C233.984 313.258 233.984 314.617 233.516 316.406H237.523C237.906 314.961 237.992 313.852 238.008 313.047H234.891V311.828H239.453V312.422C239.445 313.219 239.445 314.586 239.023 316.406H241.047ZM229.75 320.078V318.906H239.422V322.5H231.266V323.969H239.859V325.141H229.781V321.391H237.938V320.078H229.75ZM245.875 312.375C247.781 312.383 249.164 313.992 249.391 316.578H252.281V311.328H253.75V325.359H252.281V317.781H249.406C249.242 320.516 247.828 322.211 245.875 322.203C243.789 322.211 242.312 320.305 242.328 317.281C242.312 314.289 243.789 312.383 245.875 312.375ZM243.734 317.281C243.742 319.508 244.609 320.875 245.875 320.875C247.141 320.875 248.008 319.508 248.016 317.281C248.008 315.086 247.141 313.711 245.875 313.703C244.609 313.711 243.742 315.086 243.734 317.281ZM266.812 311.328V316.75H269.062V317.969H266.812V325.359H265.328V311.328H266.812ZM256.5 321.875V312.672H263.047V313.875H257.984V320.641C260.336 320.633 262.094 320.531 264.094 320.172L264.281 321.422C262.086 321.812 260.227 321.883 257.625 321.875H256.5ZM285.219 319.797V320.938H274.812V319.797H279.281V318.609H280.75V319.797H285.219ZM273.625 318.109V316.922H279.328V315.625H275.359V311.531H276.828V314.453H285V315.625H280.812V316.922H286.438V318.109H273.625ZM275.766 323.406C275.758 322.164 277.297 321.5 280 321.5C282.719 321.5 284.273 322.164 284.281 323.406C284.273 324.648 282.719 325.305 280 325.297C277.297 325.305 275.758 324.648 275.766 323.406ZM277.312 323.406C277.305 323.992 278.273 324.266 280 324.266C281.734 324.266 282.727 323.992 282.719 323.406C282.727 322.812 281.734 322.539 280 322.547C278.273 322.539 277.305 322.812 277.312 323.406ZM293.844 312.172C296.781 312.172 299.016 313.727 299.016 316.078C299.016 318.445 296.781 319.992 293.844 319.984C290.914 319.992 288.68 318.445 288.688 316.078C288.68 313.727 290.914 312.172 293.844 312.172ZM287.469 323.516V322.281H300.281V323.516H287.469ZM290.109 316.078C290.102 317.711 291.695 318.766 293.844 318.766C295.984 318.766 297.57 317.711 297.578 316.078C297.57 314.453 295.984 313.367 293.844 313.375C291.695 313.367 290.102 314.453 290.109 316.078ZM305.562 315.156C305.562 317.391 306.5 319.773 308.375 320.922L307.547 322.062C306.234 321.273 305.352 319.875 304.867 318.258C304.359 320.031 303.391 321.547 302.031 322.375L301.109 321.266C303.086 320.078 304.133 317.602 304.125 315.219V312.609H305.562V315.156ZM306.859 317.484V316.25H309.031V311.594H310.438V324.641H309.031V317.484H306.859ZM311.922 325.328V311.328H313.344V325.328H311.922ZM327.938 322.344V323.578H315.125V322.344H318.188V318.688C317.039 318.055 316.336 317.055 316.344 315.797C316.336 313.594 318.5 312.148 321.5 312.141C324.508 312.148 326.672 313.594 326.672 315.797C326.672 317.031 326 318.023 324.875 318.656V322.344H327.938ZM317.781 315.797C317.781 317.297 319.305 318.273 321.5 318.281C323.68 318.273 325.227 317.297 325.234 315.797C325.227 314.289 323.68 313.328 321.5 313.328C319.305 313.328 317.781 314.289 317.781 315.797ZM319.656 322.344H323.375V319.234C322.805 319.367 322.172 319.438 321.5 319.438C320.844 319.438 320.219 319.367 319.656 319.234V322.344ZM330.547 324.109C329.938 324.102 329.43 323.609 329.438 323C329.43 322.391 329.938 321.891 330.547 321.891C331.148 321.891 331.648 322.391 331.656 323C331.648 323.609 331.148 324.102 330.547 324.109Z" fill="#626273"/>
<circle cx="257" cy="220" r="43" fill="#626273"/>
<path d="M246 220H268" stroke="white" stroke-width="3" stroke-linecap="round" stroke-linejoin="round"/>
<path d="M257 209L257 231" stroke="white" stroke-width="3" stroke-linecap="round" stroke-linejoin="round"/>
</g>
<defs>
<filter id="filter0_d_14_2" x="0" y="0" width="516" height="516" filterUnits="userSpaceOnUse" color-interpolation-filters="sRGB">
<feFlood flood-opacity="0" result="BackgroundImageFix"/>
<feColorMatrix in="SourceAlpha" type="matrix" values="0 0 0 0 0 0 0 0 0 0 0 0 0 0 0 0 0 0 127 0" result="hardAlpha"/>
<feOffset dy="4"/>
<feGaussianBlur stdDeviation="2"/>
<feComposite in2="hardAlpha" operator="out"/>
<feColorMatrix type="matrix" values="0 0 0 0 0 0 0 0 0 0 0 0 0 0 0 0 0 0 0.25 0"/>
<feBlend mode="normal" in2="BackgroundImageFix" result="effect1_dropShadow_14_2"/>
<feBlend mode="normal" in="SourceGraphic" in2="effect1_dropShadow_14_2" result="shape"/>
</filter>
<filter id="filter1_d_14_2" x="179.094" y="177" width="156.562" height="156.359" filterUnits="userSpaceOnUse" color-interpolation-filters="sRGB">
<feFlood flood-opacity="0" result="BackgroundImageFix"/>
<feColorMatrix in="SourceAlpha" type="matrix" values="0 0 0 0 0 0 0 0 0 0 0 0 0 0 0 0 0 0 127 0" result="hardAlpha"/>
<feOffset dy="4"/>
<feGaussianBlur stdDeviation="2"/>
<feComposite in2="hardAlpha" operator="out"/>
<feColorMatrix type="matrix" values="0 0 0 0 0 0 0 0 0 0 0 0 0 0 0 0 0 0 0.25 0"/>
<feBlend mode="normal" in2="BackgroundImageFix" result="effect1_dropShadow_14_2"/>
<feBlend mode="normal" in="SourceGraphic" in2="effect1_dropShadow_14_2" result="shape"/>
</filter>
</defs>
</svg>
